<mxfile host="app.diagrams.net" modified="2023-10-16T18:22:16.275Z" agent="Mozilla/5.0 (X11; Linux x86_64) AppleWebKit/537.36 (KHTML, like Gecko) Chrome/117.0.0.0 Safari/537.36" version="22.0.4" etag="r6_9K3reIxGOGTv2hIzl" type="github">
  <diagram name="Page-1" id="FllkDIc6YabXJgImyPDp">
    <mxGraphModel>
      <root>
        <mxCell id="0" />
        <mxCell id="1" parent="0" />
      </root>
    </mxGraphModel>
  </diagram>
</mxfile>
